<svg xmlns="http://www.w3.org/2000/svg" xmlns:xlink="http://www.w3.org/1999/xlink" width="100" zoomAndPan="magnify" viewBox="0 0 75 74.999997" height="100" preserveAspectRatio="xMidYMid meet" version="1.0"><defs><clipPath id="id1"><path d="M 7.5 7.5 L 30 7.5 L 30 30 L 7.5 30 Z M 7.5 7.5 " clip-rule="nonzero"/></clipPath><clipPath id="id2"><path d="M 28.558594 26.074219 L 46.558594 26.074219 L 46.558594 48.574219 L 28.558594 48.574219 Z M 28.558594 26.074219 " clip-rule="nonzero"/></clipPath><clipPath id="id3"><path d="M 44.683594 47.824219 L 67.183594 47.824219 L 67.183594 67.324219 L 44.683594 67.324219 Z M 44.683594 47.824219 " clip-rule="nonzero"/></clipPath></defs><g clip-path="url(#id1)"><path fill="#100f0d" d="M 26.226562 17.773438 L 26.226562 14.640625 C 26.226562 14.433594 26.058594 14.265625 25.851562 14.265625 C 25.644531 14.265625 25.476562 14.433594 25.476562 14.640625 L 25.476562 29.214844 L 12.023438 29.214844 L 12.023438 14.640625 C 12.023438 14.433594 11.855469 14.265625 11.648438 14.265625 C 11.441406 14.265625 11.273438 14.433594 11.273438 14.640625 L 11.273438 17.773438 L 8.347656 16.308594 L 9.753906 10.734375 C 9.949219 10.109375 10.46875 9.628906 11.105469 9.476562 L 15.859375 8.359375 L 16.066406 9.179688 C 16.375 10.414062 17.476562 11.273438 18.75 11.273438 C 20.023438 11.273438 21.125 10.414062 21.433594 9.179688 L 21.640625 8.359375 L 26.394531 9.476562 C 27.03125 9.628906 27.550781 10.109375 27.742188 10.710938 L 29.152344 16.308594 Z M 19.859375 8.503906 L 20.867188 8.359375 L 20.710938 8.996094 C 20.484375 9.898438 19.679688 10.527344 18.75 10.527344 C 17.820312 10.527344 17.015625 9.898438 16.789062 8.996094 L 16.632812 8.359375 L 17.640625 8.503906 C 18.375 8.609375 19.125 8.609375 19.859375 8.503906 Z M 28.460938 10.511719 C 28.183594 9.632812 27.457031 8.960938 26.566406 8.75 L 21.453125 7.546875 C 21.449219 7.546875 21.441406 7.546875 21.4375 7.546875 C 21.398438 7.539062 21.355469 7.535156 21.3125 7.542969 L 19.753906 7.761719 C 19.085938 7.859375 18.414062 7.859375 17.746094 7.761719 L 16.1875 7.542969 C 16.144531 7.535156 16.101562 7.539062 16.0625 7.546875 C 16.054688 7.546875 16.050781 7.546875 16.046875 7.546875 L 10.933594 8.75 C 10.042969 8.960938 9.316406 9.632812 9.035156 10.53125 L 7.550781 16.417969 C 7.503906 16.585938 7.585938 16.761719 7.742188 16.84375 L 11.273438 18.605469 L 11.273438 29.589844 C 11.273438 29.792969 11.441406 29.960938 11.648438 29.960938 L 25.851562 29.960938 C 26.058594 29.960938 26.226562 29.792969 26.226562 29.589844 L 26.226562 18.605469 L 29.757812 16.84375 C 29.914062 16.761719 29.996094 16.585938 29.949219 16.417969 L 28.460938 10.511719 " fill-opacity="1" fill-rule="nonzero"/></g><g clip-path="url(#id2)"><path fill="#000000" d="M 29.089844 48.449219 L 35.214844 48.449219 C 35.335938 48.449219 35.441406 48.410156 35.535156 48.335938 C 35.625 48.257812 35.683594 48.164062 35.703125 48.046875 L 37.578125 37.300781 L 39.449219 48.046875 C 39.46875 48.164062 39.527344 48.257812 39.617188 48.335938 C 39.710938 48.410156 39.816406 48.449219 39.9375 48.449219 L 46.0625 48.449219 C 46.207031 48.449219 46.332031 48.398438 46.429688 48.292969 C 46.527344 48.1875 46.570312 48.0625 46.554688 47.917969 L 44.449219 26.636719 C 44.4375 26.515625 44.382812 26.410156 44.289062 26.328125 C 44.195312 26.242188 44.085938 26.203125 43.957031 26.203125 L 31.195312 26.203125 C 31.066406 26.203125 30.957031 26.242188 30.863281 26.328125 C 30.769531 26.410156 30.714844 26.515625 30.703125 26.636719 L 28.597656 47.917969 C 28.582031 48.0625 28.625 48.1875 28.722656 48.292969 C 28.820312 48.398438 28.945312 48.449219 29.089844 48.449219 Z M 37.578125 27.167969 L 43.507812 27.167969 L 43.625 28.34375 L 31.527344 28.34375 L 31.644531 27.167969 Z M 31.433594 29.3125 L 37.082031 29.3125 L 37.082031 31.046875 C 37.082031 31.179688 37.128906 31.292969 37.226562 31.386719 C 37.324219 31.480469 37.441406 31.527344 37.578125 31.527344 C 37.710938 31.527344 37.828125 31.480469 37.925781 31.386719 C 38.023438 31.292969 38.070312 31.179688 38.070312 31.046875 L 38.070312 29.3125 L 43.71875 29.3125 L 45.519531 47.484375 L 40.355469 47.484375 L 38.0625 34.34375 C 38.0625 34.335938 38.058594 34.332031 38.058594 34.328125 C 38.050781 34.292969 38.035156 34.261719 38.019531 34.230469 C 38.003906 34.171875 37.972656 34.125 37.921875 34.089844 C 37.898438 34.066406 37.878906 34.042969 37.851562 34.023438 C 37.828125 34.011719 37.800781 34 37.773438 33.988281 C 37.742188 33.972656 37.707031 33.960938 37.675781 33.953125 C 37.667969 33.953125 37.664062 33.949219 37.660156 33.945312 C 37.605469 33.949219 37.546875 33.949219 37.492188 33.945312 C 37.488281 33.949219 37.484375 33.953125 37.476562 33.953125 C 37.445312 33.960938 37.414062 33.972656 37.382812 33.988281 C 37.324219 34.003906 37.273438 34.035156 37.238281 34.082031 C 37.210938 34.105469 37.1875 34.128906 37.167969 34.15625 C 37.15625 34.179688 37.144531 34.203125 37.132812 34.226562 C 37.117188 34.257812 37.105469 34.292969 37.09375 34.328125 C 37.09375 34.332031 37.089844 34.335938 37.089844 34.34375 L 34.796875 47.484375 L 29.632812 47.484375 Z M 31.433594 29.3125 " fill-opacity="1" fill-rule="nonzero"/></g><g clip-path="url(#id3)"><path fill="#000000" d="M 66.070312 60.207031 L 65.046875 55.265625 C 64.152344 50.953125 60.320312 47.824219 55.933594 47.824219 C 51.550781 47.824219 47.71875 50.953125 46.824219 55.265625 L 45.800781 60.207031 C 45.164062 60.394531 44.695312 60.980469 44.695312 61.675781 L 44.695312 65.78125 C 44.695312 66.632812 45.382812 67.324219 46.230469 67.324219 L 65.640625 67.324219 C 66.488281 67.324219 67.175781 66.632812 67.175781 65.78125 L 67.175781 61.675781 C 67.175781 60.980469 66.707031 60.394531 66.070312 60.207031 Z M 55.933594 48.847656 C 59.839844 48.847656 63.25 51.632812 64.046875 55.472656 L 65.011719 60.136719 L 46.855469 60.136719 L 47.824219 55.472656 C 48.621094 51.632812 52.03125 48.847656 55.933594 48.847656 Z M 64.109375 66.296875 L 62.066406 66.296875 L 62.066406 64.757812 L 64.109375 64.757812 Z M 66.152344 65.78125 C 66.152344 66.066406 65.921875 66.296875 65.640625 66.296875 L 65.132812 66.296875 L 65.132812 64.242188 C 65.132812 63.960938 64.902344 63.730469 64.621094 63.730469 L 61.554688 63.730469 C 61.273438 63.730469 61.042969 63.960938 61.042969 64.242188 L 61.042969 66.296875 L 46.230469 66.296875 C 45.949219 66.296875 45.71875 66.066406 45.71875 65.78125 L 45.71875 61.675781 C 45.71875 61.394531 45.949219 61.164062 46.230469 61.164062 L 65.640625 61.164062 C 65.921875 61.164062 66.152344 61.394531 66.152344 61.675781 Z M 66.152344 65.78125 " fill-opacity="1" fill-rule="nonzero"/></g></svg>